# xmcd CD database file
#
# Track frame offsets:
#	150
#	27107
#	46295
#	62715
#	84875
#	104917
#	122417
#	145075
#	177622
#	198015
#	215542
#	232762
#	248475
#	266250
#	282810
#
# Disc length: 4070 seconds
#
# Revision: 3
# Processed by: cddbd v1.4PL0 Copyright (c) Steve Scherf et al.
# Submitted via: CDex 1.40Beta9
#
DISCID=c50fe40f
DTITLE=Sting - Fields of Gold
DYEAR=1900
DGENRE=Blues
TTITLE0=When We Dance
TTITLE1=If You Love Somebody Set Them Free
TTITLE2=Fields of Gold
TTITLE3=All This Time
TTITLE4=Englishman in New York
TTITLE5=Mad About You
TTITLE6=It's Probably Me
TTITLE7=They Dance Alone ( CUECA SOLO)
TTITLE8=If I Ever Lose My Faith inYou
TTITLE9=Fragile
TTITLE10=We'll be Together
TTITLE11=Love is the seventh wave
TTITLE12=Russians
TTITLE13=Demolition man
TTITLE14=This cowboy song
EXTD=ID3G: 0
EXTT0=
EXTT1=
EXTT2=
EXTT3=
EXTT4=
EXTT5=
EXTT6=
EXTT7=
EXTT8=
EXTT9=
EXTT10=
EXTT11=
EXTT12=
EXTT13=
EXTT14=
PLAYORDER=
